<?xml version="1.0" encoding="UTF-8" standalone="no"?>
<!DOCTYPE svg PUBLIC "-//W3C//DTD SVG 1.1//EN" "http://www.w3.org/Graphics/SVG/1.1/DTD/svg11.dtd">
<svg width="100%" height="100%" viewBox="0 0 72 72" version="1.1" xmlns="http://www.w3.org/2000/svg" xmlns:xlink="http://www.w3.org/1999/xlink" xml:space="preserve" xmlns:serif="http://www.serif.com/" style="fill-rule:evenodd;clip-rule:evenodd;stroke-linecap:round;stroke-linejoin:round;">
    <g id="line-supplement">
        <g transform="matrix(1.45628,0,0,1.45628,-16.4884,-16.2201)">
            <path d="M36,20.981L36,51.019" style="fill:none;fill-rule:nonzero;stroke:black;stroke-width:4px;"/>
        </g>
        <g transform="matrix(1.45628,0,0,1.45628,-16.4884,-16.2201)">
            <path d="M51.019,36L20.981,36" style="fill:none;fill-rule:nonzero;stroke:black;stroke-width:4px;"/>
        </g>
        <g transform="matrix(1.45628,0,0,1.45628,-16.4884,-16.2201)">
            <path d="M46.62,25.38L25.38,46.62" style="fill:none;fill-rule:nonzero;stroke:black;stroke-width:4px;"/>
        </g>
        <g transform="matrix(1.45628,0,0,1.45628,-16.4884,-16.2201)">
            <path d="M46.62,46.62L25.38,25.38" style="fill:none;fill-rule:nonzero;stroke:black;stroke-width:4px;"/>
        </g>
    </g>
    <g id="color">
        <g transform="matrix(1.45628,0,0,1.45628,-16.4884,-16.2201)">
            <path d="M36,20.939L36,50.977" style="fill:none;fill-rule:nonzero;stroke:white;stroke-width:4px;"/>
        </g>
        <g transform="matrix(1.45628,0,0,1.45628,-16.4884,-16.2201)">
            <path d="M51.019,35.958L20.981,35.958" style="fill:none;fill-rule:nonzero;stroke:white;stroke-width:4px;"/>
        </g>
        <g transform="matrix(1.45628,0,0,1.45628,-16.4884,-16.2201)">
            <path d="M46.62,25.338L25.38,46.578" style="fill:none;fill-rule:nonzero;stroke:white;stroke-width:4px;"/>
        </g>
        <g transform="matrix(1.45628,0,0,1.45628,-16.4884,-16.2201)">
            <path d="M46.62,46.578L25.38,25.338" style="fill:none;fill-rule:nonzero;stroke:white;stroke-width:4px;"/>
        </g>
    </g>
    <g id="line">
    </g>
</svg>
